<?xml version="1.0" encoding="iso-8859-1"?>
<!-- Generator: Adobe Illustrator 19.0.0, SVG Export Plug-In . SVG Version: 6.00 Build 0)  -->
<svg version="1.1" id="Layer_1" xmlns="http://www.w3.org/2000/svg" xmlns:xlink="http://www.w3.org/1999/xlink" x="0px" y="0px"
	 viewBox="0 0 512 512" style="enable-background:new 0 0 512 512;" xml:space="preserve">
<g transform="translate(1 1)">
	<g>
		<g>
			<path d="M189.293,447.853c-27.307-11.947-50.347-30.72-68.267-55.467c-36.693-52.053-46.933-128-26.453-212.48
				c0.853-4.267-2.56-9.387-6.827-10.24s-9.387,2.56-10.24,6.827c-20.48,89.6-10.24,169.813,29.867,226.133
				C127,429.933,152.6,450.413,183.32,463.213c0.853,0.853,2.56,0.853,3.413,0.853c3.413,0,6.827-2.56,6.827-5.12
				C196.12,454.68,193.56,449.56,189.293,447.853z"/>
			<path d="M450.413,115.907c-0.853-3.413-4.267-5.973-7.68-5.973c-26.349,0-50.621,12.542-72.452,33.53
				C349.096,54.894,305.113-1,255-1c-50.224,0-94.293,56.142-115.423,144.325c-21.795-20.906-46.019-33.392-72.31-33.392
				c-3.413,0-6.827,2.56-7.68,5.973C3.267,278.893,48.493,377.88,80.067,422.253C120.173,478.573,184.173,511,255,511
				s134.827-32.427,174.933-88.747C461.507,377.88,506.733,278.893,450.413,115.907z M255,16.067
				c42.667,0,82.773,56.32,100.693,141.653c-47.787,57.173-75.947,145.067-87.893,192.853c-5.12,15.36-9.387,31.573-12.8,49.493
				c-3.413-17.92-7.68-34.133-12.8-49.493c-11.947-47.787-39.253-136.533-87.893-192.853C172.227,72.387,212.333,16.067,255,16.067z
				 M93.72,412.013C43.373,342.04,36.547,237.933,73.24,127c23.253,2.186,44.885,16.133,64.434,37.899
				c0.136,0.174,0.27,0.352,0.419,0.501c8.472,9.505,16.792,20.776,24.83,33.542c49.209,78.572,80.417,204.531,83.432,291.381
				c0.02,1.196,0.034,2.403,0.048,3.607C183.284,491.353,129.548,462.343,93.72,412.013z M416.28,412.013
				c-35.828,50.33-89.564,79.34-152.683,81.917c0.014-1.214,0.028-2.428,0.049-3.633c1.316-37.834,7.981-83.086,19.153-128.611
				c0.676-2.012,1.355-4.021,2.068-5.992c20.48-81.067,52.053-150.187,87.04-189.44c0.507-0.761,0.927-1.521,1.261-2.282
				c19.328-21.232,40.673-34.816,63.593-36.971C473.453,238.787,466.627,342.04,416.28,412.013z"/>
			<path d="M223.427,48.493c-18.773,16.213-34.987,46.933-46.08,85.333c-0.853,4.267,1.707,8.533,5.973,10.24
				c0.853,0,1.707,0,2.56,0c3.413,0,6.827-2.56,7.68-5.12c10.24-34.987,24.747-63.147,40.96-77.653
				c3.413-3.413,4.267-8.533,0.853-11.947S226.84,45.08,223.427,48.493z"/>
		</g>
	</g>
</g>
<g>
</g>
<g>
</g>
<g>
</g>
<g>
</g>
<g>
</g>
<g>
</g>
<g>
</g>
<g>
</g>
<g>
</g>
<g>
</g>
<g>
</g>
<g>
</g>
<g>
</g>
<g>
</g>
<g>
</g>
</svg>
